<?xml version="1.0" encoding="utf-8"?>
<!-- Generator: Adobe Illustrator 18.0.0, SVG Export Plug-In . SVG Version: 6.00 Build 0)  -->
<!DOCTYPE svg PUBLIC "-//W3C//DTD SVG 1.1//EN" "http://www.w3.org/Graphics/SVG/1.1/DTD/svg11.dtd">
<svg version="1.1" xmlns="http://www.w3.org/2000/svg" xmlns:xlink="http://www.w3.org/1999/xlink" x="0px" y="0px"
	 viewBox="0 0 1000 1000" enable-background="new 0 0 1000 1000" xml:space="preserve">
<g id="Layer_1">
	<rect fill="#465A64" width="1000" height="1000"/>
</g>
<g id="Layer_4">
	
		<text transform="matrix(0.9962 0 -8.716000e-002 0.9962 101.5707 872.6354)" fill="#F28A14" font-family="'Montserrat-Regular'" font-size="154.5597">OctoPerf</text>
	<g>
		<path fill="#FFFFFF" d="M703.1,107.5c137.7,0,210.7,68.8,200.3,189c-10.8,124.9-96.1,197.7-233.8,197.7h-61.9L593.3,661H501
			l47.9-553.5H703.1z M615,410.4h58c84.5,0,135.4-36.4,141.9-111.5c6.3-72.7-38.4-107.5-122.9-107.5h-58L615,410.4z"/>
	</g>
	<path fill="#FFFFFF" d="M296,403.1c3.3,4.6,9.8,6.4,16.3,3.8l10.4-4.1c6.2-2.4,10.6-8.1,11.6-14c30.6-11.7,62.5-24.4,62.5-24.4
		c46.6-22.7,79.4-63.7,88.5-116.1c15.2-87.1-36-140.8-132-140.8c-95.3,0-147.2,35.2-162.2,120.8c-6.9,39.2,25,96.3,69.7,91.6
		c-12.5-8.4-20.3-20.5-23-36.2c4.6-2.9,8.1-7.9,8.7-13.2l1.1-10.5c0.7-6.2-2.6-11.3-7.8-13.2c5.4-22.5,17-40.4,33.6-52.9
		c3.2,5.7,10.6,7.9,17.8,4.8l10.3-4.5c7.2-3.2,11.8-10.7,11.1-17.6c9.1-2,18.8-3,29.2-3c18.8,0,34.3,3.3,46.4,9.4
		c-5.3,6.5-5.4,15.4,0.1,20.1l7.3,6.3c4.7,4,12.1,3.8,18,0c5.3,12.1,6.5,27,3.5,44.4c-2,11.2-8.1,21.3-16.5,30.3
		c-4.7-1.9-10.8-1.1-15.8,2.8l-9.1,7c-5,3.8-7.6,9.6-7.1,14.9c-27,15.9-54.9,24.4-55,24.4l-91.6,33c-61.6,22.4-106,73.1-117.5,139
		c-16.7,95.7,42.2,154.8,152.2,154.8c110.6,0,190.3-59.1,207.3-156.4c8.8-50.5-4.9-91.9-35.4-118.3L351,413.2
		c7,2.8,13.1,6.4,18.4,10.6c-4.6,4.7-5.7,12.9-2.2,19.8l5.1,10.2c4,7.9,12.5,11.2,19,7.3c1.9,10.1,1.7,21.5-0.4,34
		c-1.4,7.9-3.4,15.4-6,22.4c-6.3-2-14.2,0.9-18.7,7.2l-6.6,9.2c-5.2,7.2-4.1,16.3,2.4,20.3c-17.6,17.9-42.1,28.9-72.1,32.3
		c0.8-7.9-4.8-14.2-12.9-14l-10.5,0.2c-7.7,0.2-15.1,6.2-17,13.8c-28.5-3.4-48.9-14.3-60.1-32c7.4-3.6,12-11.9,10.2-19.1l-2.4-9.7
		c-1.9-7.5-9.9-11.1-18-8.1c-0.1-7.1,0.5-14.6,1.9-22.7c3.6-20.6,12.6-36.1,25.7-48.5c4.4,6.1,13.7,6.7,20.8,1.3l9.1-6.9
		c6.1-4.6,8.7-12.2,6.6-18.2c13.3-6.2,28.2-11.6,44.1-16.7C289.7,405.3,292.6,404.3,296,403.1z"/>
</g>
</svg>
